<?xml version="1.0" standalone="no"?>
<!DOCTYPE svg PUBLIC "-//W3C//DTD SVG 1.1//EN" "http://www.w3.org/Graphics/SVG/1.1/DTD/svg11.dtd" >
<svg xmlns="http://www.w3.org/2000/svg">
<metadata></metadata>
<defs>
<font id="egbwregular" horiz-adv-x="2500" >
<font-face units-per-em="2048" ascent="1638" descent="-410" />
<missing-glyph horiz-adv-x="819" />
<glyph unicode="&#xd;" horiz-adv-x="550" />
<glyph horiz-adv-x="0" />
<glyph horiz-adv-x="0" />
<glyph unicode=" "  horiz-adv-x="819" />
<glyph unicode="&#x09;" horiz-adv-x="819" />
<glyph unicode="&#xa0;" horiz-adv-x="819" />
<glyph unicode="!" horiz-adv-x="731" d="M257 1502h59q190 0 335 -99l-236 -1241l-20 -118q-197 14 -197 98q0 631 59 1360zM119 -75q335 -39 335 -118v-315q-222 0 -394 118z" />
<glyph unicode="&#x22;" horiz-adv-x="810" d="M237 1699h79q40 -6 40 -39v-316q-29 0 -79 -79h-59q-158 57 -158 178v217q128 39 177 39zM572 1640h79q40 0 79 -256q0 -10 -118 -197h-40l20 39q-177 137 -177 355q98 59 157 59z" />
<glyph unicode="#" horiz-adv-x="1460" d="M1223 1541q39 -130 39 -413h118v-40q-138 0 -138 -236q0 -451 -59 -1084q-209 -59 -315 -59h-20v19q0 93 20 611q-237 -44 -237 -79v-157q0 -237 -137 -237l-119 -19q-79 0 -79 216v197h-137l-99 20q0 73 256 118v158q0 128 20 394q-30 20 -118 20v20l118 78 q0 335 197 335h79q59 -12 59 -157v-178h118l138 20v355q46 98 296 98zM651 930v-59q0 -166 -20 -492l257 39q19 413 19 572h-19q-237 -15 -237 -60z" />
<glyph unicode="$" horiz-adv-x="1480" d="M868 1581h59q33 0 59 -138h158q118 -12 118 -59q0 -29 -59 -59l-236 19v-19q0 -132 -20 -611q453 -137 453 -414v-59q0 -119 -512 -256q0 -261 -197 -395v-39h-40l20 39q-118 107 -118 197v158q-43 0 -217 -20q-276 0 -276 138v59q17 0 158 20q29 -98 197 -98h138v19 q0 97 39 611q-473 75 -473 158v20q0 147 532 512q0 217 217 217zM415 891q54 -59 197 -59q0 48 19 296h-19q-197 -158 -197 -237zM907 497v-59q0 -104 -19 -335h19q178 25 178 177v20q0 109 -138 197h-40z" />
<glyph unicode="%" horiz-adv-x="1933" d="M1459 1522q151 0 178 -79q-66 -486 -1262 -2089q-276 53 -276 98v20q1102 1469 1301 1991zM277 1384q571 0 571 -276v-99q0 -247 -335 -354h-59q-394 0 -394 216q0 321 217 513zM494 1285q-138 -236 -138 -433v-59h19q217 102 217 275q-30 217 -98 217zM1361 260h78 q414 0 414 -335v-19q-154 -355 -374 -355q-355 72 -355 158v59q0 345 217 433l98 -19q-59 -368 -59 -434v-39h20q217 148 217 295q0 158 -256 217v39z" />
<glyph unicode="&#x26;" horiz-adv-x="1638" d="M513 1699q572 -71 572 -355q19 0 19 -79q0 -285 -394 -827q143 -158 158 -158q20 0 217 375l39 19h118q119 -12 119 -59q-178 -506 -257 -571q0 -41 375 -375q0 -18 79 -118v-20q-332 0 -572 296q-139 -237 -335 -237h-20q-571 0 -571 375q0 163 335 532 q-236 292 -236 453v178q54 571 354 571zM454 911q0 -50 59 -217h20q296 340 296 670q0 99 -119 197h-39q-217 -171 -217 -650zM553 280q-197 -234 -197 -355v-59l39 -138h39q124 0 316 316v19q-46 100 -197 217z" />
<glyph unicode="'" horiz-adv-x="455" d="M218 1482h98q40 0 59 -197l-79 -197q-14 0 -118 -20q0 48 -98 217q0 15 -20 118q83 79 158 79z" />
<glyph unicode="(" horiz-adv-x="731" d="M612 1108h39q-236 -567 -236 -867v-79q0 -209 177 -473q0 -49 39 -99q0 -39 -39 -39h-20q-59 59 -315 118q-197 167 -197 473q0 507 394 926q72 40 158 40z" />
<glyph unicode=")" horiz-adv-x="948" d="M612 1305h39q158 0 217 -631v-217q-30 -252 -237 -532q-261 -248 -532 -275h-39q552 400 552 1103v59q0 40 -20 434q20 38 20 59z" />
<glyph unicode="*" horiz-adv-x="1322" d="M1223 1206l19 -39q0 -166 -275 -237q0 -35 -99 -137q104 0 177 -20q0 -79 -276 -79v-138h99q113 0 256 -177l-39 -138h-40v39h-59q-75 0 -217 99q0 -316 -138 -316h-118q-59 201 -59 355q-213 -177 -315 -177v98q152 256 315 256v99h-256l-99 20q0 65 276 79 q0 65 -315 98v138q198 59 276 59q52 -158 98 -158v40l-19 79q31 98 256 98q79 -120 79 -256q131 118 197 118v99q52 98 276 98z" />
<glyph unicode="+" horiz-adv-x="1342" d="M789 1305l99 -20h59q20 -197 20 -295v-158l197 20h98q0 -45 -295 -138q-48 -651 -99 -651q-77 -39 -217 -39h-118v20q0 135 39 591q-19 0 -19 20l-40 -20h-315l-138 20q0 78 355 98h157v434q0 42 217 118z" />
<glyph unicode="," horiz-adv-x="574" d="M395 103h20q79 -32 79 -138q0 -240 -395 -394l-19 98q39 128 39 178v118q0 39 -59 39v59q158 40 335 40z" />
<glyph unicode="-" horiz-adv-x="1303" d="M1144 773h79v-59q-368 -119 -769 -119h-394v60q202 59 887 78q0 36 197 40z" />
<glyph unicode="." horiz-adv-x="593" d="M415 162h39q28 0 59 -59v-138q-23 -79 -315 -99q-15 0 -118 20v59l19 99q-39 0 -39 39q0 79 355 79z" />
<glyph unicode="/" horiz-adv-x="1026" d="M931 1058h31v-31q-262 -354 -615 -1009q-129 -63 -268 -63h-31q111 300 536 945q89 158 347 158z" />
<glyph unicode="0" horiz-adv-x="1278" d="M647 1090q489 -42 489 -126q78 -84 78 -268q0 -673 -409 -915q-168 -47 -284 -47h-31q-391 0 -442 473v31q0 574 331 789q74 31 268 63zM553 980q-221 -279 -221 -726q0 -267 252 -426h63q299 293 299 836q-13 172 -94 268q-97 -32 -126 -32z" />
<glyph unicode="1" horiz-adv-x="838" d="M584 1184q0 -16 16 -47q-47 -226 -79 -1182l189 15h64v-15q0 -36 -253 -95q0 -69 -284 -95h-158q-31 0 -31 32v15q170 64 189 64q32 936 63 1135h-110v31q15 0 189 142h205z" />
<glyph unicode="2" horiz-adv-x="1263" d="M663 1168h47q268 0 268 -346v-79q0 -358 -473 -915v-16q49 16 378 32q0 75 253 95h31q32 -5 32 -31q0 -137 -142 -174q0 -16 -158 -16q0 32 -31 32h-32q-277 0 -694 -79q-30 16 -47 16q375 260 599 914q16 83 16 158v94q0 150 -126 237q-133 0 -331 -378 q-79 -48 -126 -48h-48q-31 0 -31 32v31q198 441 615 441z" />
<glyph unicode="3" horiz-adv-x="1231" d="M899 1137q174 0 174 -173v-48q0 -80 -190 -315q182 0 268 -221l16 -157v-111q0 -194 -315 -347q-257 -78 -552 -78h-173l-79 15v16q0 35 16 63q-16 31 -16 47h79q39 -31 189 -63q458 0 458 143q40 0 94 188v142q0 164 -126 253q-269 -79 -363 -79l-94 16v16 q64 69 362 172q158 208 158 316v16q-16 94 -47 94q-100 0 -300 -142q-17 0 -48 -16q-25 16 -78 16v48q225 189 567 189z" />
<glyph unicode="4" horiz-adv-x="1436" d="M1057 1263h63v-15l-94 -1120q64 0 157 126q119 0 189 -78v-32q-362 -107 -362 -126q0 -103 -16 -316q-179 -47 -284 -47h-16q0 107 32 363h-284q-228 0 -394 62v32q0 132 630 993q137 0 190 127q109 31 189 31zM789 916q-320 -487 -457 -756q77 -48 205 -48h173 q42 0 95 788v16h-16z" />
<glyph unicode="5" horiz-adv-x="1310" d="M1136 1152l110 -15v-47q-63 0 -646 -79q0 -63 -32 -379l190 16h47q394 -39 394 -347v-189q0 -340 -568 -520q-190 -32 -299 -32h-63q-221 11 -221 95v32q13 137 47 141l-16 32v48h32q0 -131 284 -253h126q211 0 362 363q16 26 16 78v174q-51 284 -236 284h-63 q-84 -126 -190 -126h-157q63 646 126 646l189 16h32q15 0 15 -16q251 78 521 78z" />
<glyph unicode="6" horiz-adv-x="1106" d="M805 1216h31v-32q-294 -183 -489 -851q112 63 284 63h158q164 0 253 -126v-142q-123 -520 -695 -520q-299 0 -299 236v48q0 745 567 1292q110 32 190 32zM316 80v-220q22 -158 142 -158h47q269 182 269 442q0 139 -237 173q-205 -27 -205 -79q-16 -82 -16 -158z" />
<glyph unicode="7" horiz-adv-x="1310" d="M363 1011h473q410 0 410 -47v-32q-244 -229 -472 -1056q0 -205 -159 -205q-82 -16 -157 -16h-32q215 833 426 1119q94 99 110 142h-646v-79q0 -41 -126 -63h-126v79l-16 79q108 79 315 79z" />
<glyph unicode="8" horiz-adv-x="1247" d="M931 1216h95q157 -20 157 -64v-78q0 -146 -409 -615q252 -235 252 -520q-77 -189 -521 -189h-63q-394 11 -394 94q0 91 426 568q-237 270 -237 394v47q0 289 426 331q211 32 268 32zM821 1090q-86 15 -143 15h-15q-158 -25 -158 -236q16 -101 110 -253h48 q236 316 236 364l16 94q-16 47 -32 47zM600 270q-253 -294 -253 -362v-32q110 -32 190 -32h157q48 0 48 142q0 168 -142 284z" />
<glyph unicode="9" horiz-adv-x="963" d="M615 1295q219 0 284 -221v-16q-73 -1308 -189 -1308q-68 -32 -252 -32h-32v16q111 322 111 725q16 0 16 16h-16q-140 -16 -174 -16q-315 0 -315 189v64q0 345 315 536q169 47 252 47zM332 759v-63q0 -16 -16 -16q25 -142 142 -142h95q31 414 62 504q-58 117 -94 126h-16 q-173 -192 -173 -409z" />
<glyph unicode=":" horiz-adv-x="569" d="M300 774q73 0 158 -142q0 -78 -173 -78q-130 46 -174 126q-16 30 -16 47q77 47 205 47zM253 112q122 0 252 -220v-16q0 -44 -158 -64h-94l-205 237q0 52 205 63z" />
<glyph unicode=";" horiz-adv-x="506" d="M253 932q142 -95 142 -173q-55 -63 -110 -63q-120 0 -237 157q0 59 205 79zM332 333q71 -26 110 -95v-110q0 -168 -378 -284q-16 31 -16 48q110 156 110 204v80q-36 78 -79 78v16q0 52 253 63z" />
<glyph unicode="&#x3c;" horiz-adv-x="995" d="M600 853l15 -31v-16q0 -291 -268 -646q200 -66 584 -426v-32q-168 -47 -284 -47q-468 425 -599 425v16q258 228 347 520q95 237 205 237z" />
<glyph unicode="=" horiz-adv-x="1263" d="M332 837h694l110 -15v-16q-3 -24 -158 -142h-47v16l31 47l-79 16h-677l-158 16q0 63 284 78zM1073 254h126v-16q0 -74 -930 -110q-111 16 -190 16v32q0 47 994 78z" />
<glyph unicode="&#x3e;" horiz-adv-x="869" d="M316 806q123 0 221 -221q257 -268 268 -268v-31q-296 -273 -473 -505q-128 -47 -237 -47h-47v16q62 162 442 504v32q-164 65 -316 426v31q0 37 142 63z" />
<glyph unicode="?" horiz-adv-x="1090" d="M521 1248q383 0 489 -268l16 -96v-31q0 -178 -332 -505q-124 -128 -189 -283h-110q0 31 -95 79q-15 28 -15 63q0 52 346 425q127 155 127 268q0 232 -205 268h-16q-252 -80 -252 -204q0 -12 15 -95h-126q-126 0 -126 111v47q170 221 473 221zM474 -172h79q21 0 78 -78 v-16q-31 0 -78 -63h-79l-111 16v94q41 0 111 47z" />
<glyph unicode="@" horiz-adv-x="1689" d="M1026 1216q442 0 567 -442q32 -58 32 -126v-126q0 -246 -284 -410q-119 -32 -221 -32q-138 0 -205 127q-130 -63 -268 -63h-16q-141 0 -141 94q40 447 252 505q134 31 173 31q71 0 158 -78h78q-15 -237 -15 -348v-47q0 -85 78 -125h16q174 150 174 330v63q0 290 -253 489 q-109 63 -252 79q-289 0 -583 -757v-189q0 -172 299 -315q195 -95 568 -95v-31q-133 -32 -347 -32q-586 0 -772 378l-16 95v47q0 331 410 789q215 189 568 189zM836 664q-94 -208 -94 -331v-95h16q173 91 173 378v16q-52 32 -95 32z" />
<glyph unicode="A" horiz-adv-x="1483" d="M726 1342h48q289 0 377 -174q116 -228 237 -1056q31 -382 31 -425l-31 -16q-237 25 -237 63q-15 305 -62 599l-190 -16h-378l-31 16q-174 -486 -174 -631q-17 0 -47 -15q-212 25 -221 63q0 286 473 1324q121 216 205 268zM521 412h284q82 0 268 16v16q0 176 -174 724h-16 q-112 -123 -283 -536q-79 -188 -79 -220z" />
<glyph unicode="B" horiz-adv-x="1247" d="M615 1216q267 0 379 -142v-79q0 -92 -252 -347v-16h16q425 -39 425 -284v-62q0 -195 -394 -426q-128 -63 -299 -63h-64q-278 0 -378 95q16 184 16 268v945q416 111 551 111zM332 1011v-395h15q395 292 395 442q-16 28 -16 63q-347 -35 -347 -110h-47zM332 459v-567h31 q347 0 552 409v111q0 131 -157 142q-68 0 -411 -95h-15z" />
<glyph unicode="C" horiz-adv-x="1358" d="M631 1248q429 0 520 -268v-16q0 -12 -47 -48q-221 0 -221 95q0 63 -109 141h-16q-146 0 -300 -299q-142 -284 -142 -505v-110q86 -346 268 -346h31q118 0 458 188h78q40 0 143 -31v-16q-267 -236 -584 -236q-472 0 -631 347q-31 61 -31 173v47q0 388 315 788 q144 96 268 96z" />
<glyph unicode="D" horiz-adv-x="1278" d="M537 1121q677 0 677 -662q0 -463 -440 -741q-148 -47 -253 -47q-307 0 -442 126q95 11 95 31q79 851 79 962q16 0 16 16q-221 26 -221 78v16q186 221 489 221zM521 1011l16 -63l-95 -1167v-16q217 0 441 411q63 187 63 315q-37 536 -268 536h-47z" />
<glyph unicode="E" horiz-adv-x="1215" d="M774 1168l204 -31v-47q-140 -43 -441 -95q-63 -326 -63 -457h47q568 -26 568 -110q0 -22 -79 -80q-236 16 -236 64v16h31v16q-239 15 -331 15q-28 -91 -64 -441q16 -24 16 -95q357 16 442 16q0 24 63 47q44 0 220 -47v-63q-36 0 -94 -48l-63 16q-24 0 -568 -16l-63 -31 q-212 25 -221 63q0 282 111 1104q-26 0 -205 47v16q0 34 362 63q0 19 364 78z" />
<glyph unicode="F" horiz-adv-x="1231" d="M190 1058q158 0 252 -63l379 63q44 0 221 -47q0 -20 -127 -127q-34 0 -237 32q-40 0 -110 -47l-158 15q0 -64 -31 -393l457 31q0 47 16 47q162 0 315 -63v-31q-127 -44 -741 -95q-63 -32 -63 -47q-31 -429 -31 -583q0 -79 -32 -79q-120 0 -252 47q79 1018 126 1340h16z " />
<glyph unicode="G" horiz-adv-x="1200" d="M600 1105q340 0 442 -283v-48q0 -31 -32 -31q-69 0 -236 47q0 16 15 16q-83 189 -111 189q-362 -275 -362 -851v-16q52 -268 158 -268q42 0 347 158v94q-69 0 -127 -32q-239 22 -252 80v16q304 31 457 78q237 -16 237 -63v-15q-47 0 -47 -32v-64l31 -47v-15l-31 -48 q-10 -362 -32 -362l-31 -16q-45 0 -221 48v141l16 31h-16q-155 -47 -205 -47q-552 0 -552 458q0 487 362 835q131 47 190 47z" />
<glyph unicode="H" horiz-adv-x="1153" d="M206 1090q212 -26 220 -63q0 -137 -47 -615h16q426 38 426 189v315l-16 111l63 31q44 0 221 -47v-252q0 -135 -95 -1025q-17 0 -48 -16q-44 0 -220 47q0 98 63 583h-15q-411 -47 -411 -78q-35 -458 -47 -458l-31 -15q-237 21 -237 79q126 1161 126 1198z" />
<glyph unicode="I" horiz-adv-x="742" d="M316 1137q221 -21 221 -63q-32 -58 -32 -126v-300q0 -444 -31 -867q25 0 204 -47q0 -63 -299 -63q-321 16 -331 79v15q126 32 158 32q31 379 31 709l16 63q0 16 -16 16l16 79v331q0 25 -158 63v16q0 31 221 63z" />
<glyph unicode="J" horiz-adv-x="963" d="M694 1137q26 0 205 -47v-16q-66 0 -78 -836q-79 -554 -221 -694q-79 -78 -95 -78h-95q-362 0 -362 189v32q17 0 47 15q221 0 221 -110h31q237 300 237 1450q-94 16 -94 48v15z" />
<glyph unicode="K" horiz-adv-x="1184" d="M206 1216q220 0 220 -79q-47 -473 -47 -568q381 428 457 583q-30 16 -47 16v16q0 32 47 32q268 -11 268 -64q0 -97 -362 -520v-31q40 0 79 -173q62 -136 299 -852h-16l-31 -16q-268 0 -268 205l-221 647h-16q-175 -173 -236 -332v-62q0 -91 -16 -253q16 -30 16 -47 q-22 -94 -63 -94q-45 0 -221 47q16 564 110 1403q-16 27 -16 63q21 73 64 79z" />
<glyph unicode="L" horiz-adv-x="1026" d="M190 1168q44 0 220 -47v-31q0 -252 -94 -1262h16q193 32 394 48q68 0 236 -48v-31q-167 -47 -252 -47h-47q-16 0 -16 15q-68 -31 -252 -31h-32q-315 16 -315 63l94 1230v125q17 0 48 16z" />
<glyph unicode="M" horiz-adv-x="1657" d="M332 1090q268 0 268 -190q110 -157 236 -552h16q178 501 378 694q300 0 300 -189q43 0 63 -1119q-47 -16 -47 -32q-111 16 -221 48q-15 498 -15 741v125l-16 80h-16q-284 -634 -284 -788v-32l16 -111h-127q-176 0 -205 268q-171 601 -236 647q-79 -368 -126 -946l-31 -16 q-69 0 -237 47q63 734 189 1183q48 142 95 142z" />
<glyph unicode="N" horiz-adv-x="1263" d="M962 1090q69 0 237 -48l-16 -78v-300q0 -48 16 -48l-16 -78v-489q0 -315 -79 -315q-194 0 -236 110q-67 0 -237 300q-25 3 -284 425q-15 -371 -15 -551v-174q0 -24 -63 -47q-135 15 -221 63q31 440 31 993v189q6 32 32 32q270 0 315 -205l473 -789h16q16 340 16 505v473 q5 32 31 32z" />
<glyph unicode="O" horiz-adv-x="1310" d="M505 1121h16q389 0 473 -189q252 -122 252 -488q0 -456 -363 -600q-56 -47 -157 -47h-48q-630 0 -630 457q0 514 331 820q79 47 126 47zM316 238v-15q0 -262 221 -347q142 0 362 236q79 132 79 316v63q0 393 -252 393q0 143 -63 143q-347 -268 -347 -789z" />
<glyph unicode="P" horiz-adv-x="1342" d="M568 1121q548 0 710 -362v-143q0 -237 -504 -440q-158 -32 -284 -32l-111 16q-47 -647 -79 -647h-15q-237 21 -237 79q31 162 110 1198q38 272 79 315h48q35 0 62 -15q86 31 221 31zM505 995v-15h32q-111 -56 -111 -253l-47 -473l31 -16q407 0 600 394v111 q0 197 -252 284h-64q-80 0 -189 -32z" />
<glyph unicode="Q" horiz-adv-x="1294" d="M600 1168q394 -22 394 -188q236 -129 236 -458v-158q-8 -160 -188 -362h-16q0 -67 141 -221v-31h-16q-204 0 -299 110q-81 -48 -158 -48h-47q-494 0 -599 364v236q0 460 473 756h79zM300 286q0 -241 174 -378h63q189 52 189 110q-43 90 -221 299v31h16q277 0 331 -172h16 q94 100 94 220v158q0 204 -126 378q-126 16 -126 63v16l16 31l-32 16q-394 -286 -394 -772z" />
<glyph unicode="R" horiz-adv-x="1137" d="M568 1121q505 0 505 -252q-26 -158 -410 -378v-16q106 -194 363 -757q16 0 16 -16v-47h-16q-246 0 -300 142l-252 583l-142 -16q-16 -315 -16 -472v-190q0 -31 -31 -31q-69 0 -237 47v79q0 310 63 1277l31 16h48q16 0 16 -16q116 47 362 47zM379 980l-32 -426 q175 0 458 315v47q0 85 -63 111h-111q-135 0 -252 -47z" />
<glyph unicode="S" horiz-adv-x="1168" d="M615 1216q363 0 363 -174v-31q0 -31 -32 -31q-236 0 -236 125q-268 -147 -268 -362v-79q0 -148 394 -300q268 -158 268 -346q-104 -316 -473 -316h-16q-398 0 -567 237q5 31 31 31q219 0 300 -126l63 -47h79q315 70 315 252v16q0 225 -567 457q-95 103 -95 174v31 q0 347 394 489h47z" />
<glyph unicode="T" horiz-adv-x="1247" d="M915 1058q61 0 268 -63v-47l-79 -16h-772v-32h-126q-123 0 -158 80v47h741q69 0 126 31zM521 916h94q121 0 143 -63v-94q-32 -947 -32 -1057v-62q-17 0 -48 -16q-152 0 -236 78l16 110q32 689 32 931v141q4 32 31 32z" />
<glyph unicode="U" horiz-adv-x="1326" d="M95 1152h142l110 -15q-15 -339 -15 -473l-16 -32l16 -31q0 -16 -16 -16q0 -516 237 -709q227 100 378 488l15 111v615q5 31 32 31h126q126 0 126 -94l32 -1246h-142l-158 16v126h-16q-143 -126 -315 -126q-377 0 -504 268q-79 260 -79 473q0 173 47 614z" />
<glyph unicode="V" horiz-adv-x="1247" d="M946 1200h127l110 -16q-63 -461 -599 -1403l-47 -47h-158q-157 0 -157 189q-174 636 -174 1072v110q5 32 31 32h127q110 0 110 -221q0 -174 126 -851q212 343 379 788q101 327 125 347z" />
<glyph unicode="W" horiz-adv-x="1610" d="M64 1152h126q126 0 126 -94q47 -159 94 -662h16q194 741 284 741h79q172 0 347 -741h15q63 228 143 709l94 16l158 -16v-78q0 -275 -252 -1072q-63 -143 -80 -143h-188q-80 185 -221 884q-39 0 -252 -804q0 -16 -32 -16l16 -79h-158q-189 0 -189 315q-32 128 -142 993 q16 31 16 47z" />
<glyph unicode="X" horiz-adv-x="1358" d="M962 1200h221q31 -5 31 -32q-171 -392 -393 -724l473 -742v-31h-174q-164 0 -237 237q-205 279 -205 315q-72 -69 -362 -505h-110l-158 16q0 80 457 725q-230 388 -457 662v16h142q192 0 410 -378l63 -63q252 473 299 504z" />
<glyph unicode="Y" horiz-adv-x="1326" d="M111 1200q252 0 252 -110q245 -393 300 -442h15l316 536l157 16l111 -32v-16q-24 -156 -426 -740v-32q32 -4 32 -32v-15h-32v-851h-158l-157 15q16 213 16 315v379l-16 189q16 0 16 16q-426 572 -489 772v16q35 0 63 16z" />
<glyph unicode="Z" horiz-adv-x="1405" d="M962 1027q189 -8 189 -47q-78 -198 -709 -1088q0 -16 -63 -95h158q65 0 630 31h16q158 -19 158 -63q-515 -47 -710 -47h-221q-362 0 -362 63q113 47 630 835q115 131 190 300h-16q-447 -36 -520 -79q-237 0 -237 63l-16 64q158 16 237 16h331q87 0 315 47z" />
<glyph unicode="[" horiz-adv-x="742" d="M379 1090h189l110 -16v-32l-173 -47l-95 16v-16q16 -108 16 -173v-126q0 -237 -110 -962h16q108 -16 173 -16h158v-47q-119 -31 -221 -31h-189q-205 0 -205 47q110 757 110 882v284q0 80 -31 189q117 48 252 48z" />
<glyph unicode="\" horiz-adv-x="916" d="M285 1090q157 -141 299 -552q174 -461 268 -615q-59 -79 -299 -79q-104 150 -505 1198v16q148 32 237 32z" />
<glyph unicode="]" horiz-adv-x="679" d="M458 1137q142 0 142 -79q0 -121 -32 -694q16 -322 47 -567q-142 -79 -567 -79v16q0 53 268 78q-16 291 -16 364q32 797 32 866h-95l-79 16q0 47 300 79z" />
<glyph unicode="_" horiz-adv-x="1421" d="M285 -14q212 -31 1056 -63l16 -31v-16q-193 -48 -221 -48q-85 0 -1088 64v47q188 31 237 47z" />
<glyph unicode="`" horiz-adv-x="1999" d="M1177 281l-45 -2l-263 148q-24 14 -35.5 28.5t-11.5 30.5q0 23 15 38.5t40 17.5q15 1 31 -7.5t44 -34.5z" />
<glyph unicode="a" horiz-adv-x="1215" d="M474 711q189 0 331 -79l31 16h126l189 -946q-119 -63 -236 -63q-53 0 -94 221h-16q-131 -190 -252 -190q-505 69 -505 315v158q0 399 347 568h79zM316 -30q0 -115 79 -174h15q252 212 332 426l-64 378h-15q-158 0 -300 -300q-47 -121 -47 -330z" />
<glyph unicode="b" horiz-adv-x="1090" d="M363 1286h16q31 -5 31 -32q-31 -633 -31 -725h16q114 47 315 47h95q221 0 221 -220v-111q0 -356 -363 -489q-168 -47 -284 -47h-189q-36 0 -63 -15q-79 15 -79 31l63 1498q115 63 252 63zM363 419q-16 -415 -16 -567q107 -48 174 -48q189 201 189 426v126 q-20 142 -142 142q-110 0 -205 -79z" />
<glyph unicode="c" horiz-adv-x="1090" d="M663 690q347 -28 347 -98v-28q0 -28 -127 -56q-13 0 -315 98q-221 -237 -221 -404v-154q0 -132 300 -264h31q32 0 268 112h80q-41 -209 -458 -209q-361 0 -504 278q-16 23 -16 70v84q83 571 615 571z" />
<glyph unicode="d" horiz-adv-x="1121" d="M1042 1279h15v-16q0 -295 -47 -1482q-148 -47 -268 -47h-48v78l-268 -47q-378 0 -378 363q0 367 315 520q103 48 252 48h143v31q0 536 94 536zM332 144q43 -284 205 -284q173 63 173 95q0 96 32 583q-172 63 -221 63q-189 -174 -189 -457z" />
<glyph unicode="e" horiz-adv-x="1074" d="M663 712q299 0 299 -253q-175 -236 -536 -236h-79l-15 -111q0 -280 394 -378l268 63l16 -32q-30 -94 -410 -125q-552 54 -552 456q0 361 378 568zM553 601q-139 -146 -190 -300h127q132 0 220 127v47q-61 112 -157 126z" />
<glyph unicode="f" horiz-adv-x="1310" d="M994 1279q189 -20 189 -79v-32q-146 -47 -221 -47q-52 31 -94 31q-79 -252 -79 -598l32 -16h425v-47q-183 -47 -378 -47h-79q16 -158 16 -237v-442q0 -47 -268 -63h-47l15 158v584h-268l-189 15q0 63 284 79h142q31 0 31 31v111q0 474 205 552q141 47 284 47z" />
<glyph unicode="g" horiz-adv-x="1200" d="M1026 712h78q32 -6 32 -32v-221q-110 -1103 -221 -1103q-101 -269 -693 -332q-174 24 -174 80q19 117 63 125h16q47 -37 220 -110q326 0 427 662h-16q-185 -79 -332 -79q-315 0 -315 268q0 441 363 615q95 47 300 47l109 -16q0 96 143 96zM395 49v-79q36 -173 142 -173 q299 195 299 426q16 0 16 221q-38 0 -205 94h-32q-220 -174 -220 -489z" />
<glyph unicode="h" horiz-adv-x="1153" d="M269 1263q78 0 78 -457v-237h16q197 111 426 111q300 0 300 -363v-141q0 -364 -95 -364q-85 -15 -142 -15h-94q31 269 31 363v157q0 207 -111 268h-47q-268 -221 -268 -552v-157q0 -53 -268 -79h-16l-31 15q16 372 16 552v379q0 505 78 505q113 15 127 15z" />
<glyph unicode="i" horiz-adv-x="459" d="M269 1027q49 -10 126 -143v-31q0 -41 -126 -63h-79q-142 30 -142 142q0 79 221 95zM253 632h94q48 0 48 -173v-694q0 -63 -316 -63v804q0 126 174 126z" />
<glyph unicode="j" horiz-adv-x="1026" d="M805 964q60 0 126 -127q0 -67 -173 -78q-100 0 -190 125v16q0 64 237 64zM915 616q47 -80 47 -157v-268q-71 -804 -394 -804q-193 -47 -441 -47q-79 102 -79 157q0 143 237 143q94 0 94 -96l-16 -78q47 0 47 -16q178 0 253 710v252l-16 157q79 47 268 47z" />
<glyph unicode="k" horiz-adv-x="1121" d="M395 1263v-647q0 -78 -16 -236h16q266 238 347 457q109 32 189 32h47q32 -5 32 -32q0 -185 -363 -441q189 -204 410 -568q-164 -63 -236 -63q-79 0 -158 158q-245 347 -268 347q-32 -5 -32 -32q-16 -264 -16 -410v-16q0 -51 -205 -62h-94v62q47 876 47 1057v331 q0 63 300 63z" />
<glyph unicode="l" horiz-adv-x="459" d="M382 1209l16 -31v-16q-31 -906 -31 -1009v-378q0 -47 63 -47v-32q-141 -48 -284 -48q-63 16 -63 95v363q31 946 31 1056v16q127 31 268 31z" />
<glyph unicode="m" horiz-adv-x="1578" d="M1136 616h126q252 0 252 -472v-174q0 -78 -16 -236q-194 -47 -268 -47h-63q32 125 32 299v268q0 199 -110 284q-91 0 -174 -520v-174q0 -63 -284 -79h-16v411q0 126 -31 283l-158 -47v-662q-179 -48 -284 -48h-15v678q0 126 -79 126v32q142 47 237 47q65 0 141 -79 q113 95 316 95h32q69 -63 78 -63q93 71 284 78z" />
<glyph unicode="n" horiz-adv-x="1184" d="M825 722q283 0 283 -662q16 -64 16 -268q-128 -63 -299 -63h-16q16 261 16 347v204q0 276 -127 363q-315 -93 -315 -268q0 -662 -79 -662q-173 -31 -236 -31l-16 31q31 253 31 457v458q0 68 268 78q16 -20 16 -110q268 126 458 126z" />
<glyph unicode="o" horiz-adv-x="1168" d="M615 680q143 -36 143 -79l31 15q249 0 284 -315q31 -133 31 -157q0 -332 -473 -426q-58 -16 -141 -16q-312 0 -426 300l-16 142q0 259 221 457q125 79 346 79zM474 538q-127 -182 -127 -362q0 -253 268 -379q190 111 190 299q-43 395 -190 395z" />
<glyph unicode="p" horiz-adv-x="1184" d="M694 664h142q284 -60 284 -426q0 -296 -299 -410q-139 -47 -411 -78q0 15 -15 15q-32 -82 -32 -331v-142q-59 -79 -299 -79l-16 32q31 621 31 1167v157q0 52 206 79h94q0 -16 16 -47q139 63 299 63zM395 380v-110q0 -134 -16 -426q35 0 63 -16q379 0 379 458 q-44 299 -221 299q-158 -79 -158 -173q-47 0 -47 -32z" />
<glyph unicode="q" horiz-adv-x="1106" d="M694 648l158 -32q61 16 126 16q52 0 64 -204v-348q0 -132 -32 -693q0 -17 16 -47q0 -142 -332 -142h-31q31 443 47 536h-16q-179 -32 -252 -32h-157q-237 25 -237 221v79q0 265 252 520q150 126 394 126zM347 49v-63q34 -205 158 -205q99 0 221 142v126q0 140 16 315 q-16 142 -32 142q-15 0 -126 32q-237 -232 -237 -489z" />
<glyph unicode="r" horiz-adv-x="1074" d="M899 648l111 -32v-15q0 -44 -158 -63h-142q-236 -240 -236 -473v-347q-168 -47 -284 -47q-48 0 -48 189q0 57 48 363v299q-12 0 -95 -16q-30 16 -47 16q142 110 378 110q48 0 48 -78q160 94 425 94z" />
<glyph unicode="s" horiz-adv-x="1074" d="M615 727h63q190 0 190 -63q0 -41 -110 -63q-58 31 -127 31h-94q-47 -16 -47 -94v-79q0 -24 472 -379q48 -69 48 -141q-80 -268 -520 -268h-158q-172 0 -284 79q0 31 110 47q119 -32 221 -32h252q95 55 95 143v15q-7 120 -473 425q-47 58 -47 111v16q0 252 409 252z" />
<glyph unicode="t" horiz-adv-x="1153" d="M710 1074h32q47 -16 47 -94v-364q157 32 284 32h16v-32q-255 -78 -300 -78v-726l16 -110h126v-47q-148 -47 -268 -47h-79q-94 0 -94 94v804h-442q0 69 268 79h174v442q121 47 220 47z" />
<glyph unicode="u" horiz-adv-x="1153" d="M992 688h58q59 0 59 -732v-307q-110 -44 -279 -44h-13v322h-30q-132 -219 -438 -219h-132q-117 0 -117 775v87q62 73 161 73h88q43 0 58 -672q15 0 29 -147h15q351 336 351 790v15q0 47 190 59z" />
<glyph unicode="v" horiz-adv-x="1342" d="M1246 680h32v-16q0 -234 -615 -1024q-127 -48 -268 -48q-268 516 -284 741q-63 163 -63 236q14 58 252 79q67 0 158 -457q101 -265 126 -283q335 445 410 724q168 48 252 48z" />
<glyph unicode="w" horiz-adv-x="1799" d="M1719 790h16q0 -344 -268 -946q-117 -189 -378 -189h-16q-151 0 -252 552h-16q-128 -489 -331 -489q-61 -16 -127 -16h-78q-95 0 -205 615q-16 251 -16 299q0 85 268 96h31v-16q0 -341 95 -710h16q216 646 284 646q119 32 220 32q83 -65 237 -772q111 142 173 472l95 395 q179 31 252 31z" />
<glyph unicode="x" horiz-adv-x="1247" d="M1183 806v-32q-112 -127 -425 -536v-31q75 -123 331 -442q0 -63 -300 -63q-222 281 -236 284q-163 -315 -411 -315h-94v31l378 474q0 13 -315 488q59 95 142 95q201 0 315 -284q32 0 32 -47h15q293 362 395 362q108 16 173 16z" />
<glyph unicode="y" horiz-adv-x="1358" d="M1214 727h32q23 0 48 -47q0 -39 -316 -600q-435 -788 -488 -788q-103 -47 -253 -47h-31v31q347 555 347 616q-249 406 -505 709v31q173 48 252 48q85 -8 426 -489q58 48 236 394q111 142 252 142z" />
<glyph unicode="z" horiz-adv-x="1184" d="M316 712q173 -16 299 -16h395q32 -5 32 -32v-16q-367 -460 -679 -930h63q111 0 694 -47v-31q-137 -48 -252 -48l-820 48v15q346 520 694 946h-237q-133 0 -394 15v48q164 32 205 48z" />
<glyph unicode="{" horiz-adv-x="727" d="M600 1279h47v-16q-157 -145 -157 -363v-110q0 -265 31 -489q0 -26 -95 -110q32 -58 32 -126v-253q0 -35 16 -62q-16 -31 -16 -48q52 -315 205 -315v-15q0 -48 -173 -48h-16q-268 52 -268 252v504q0 111 -158 111v32q110 31 189 31h48v347q0 542 205 647z" />
<glyph unicode="|" horiz-adv-x="554" d="M488 1177l16 -32q-110 -1419 -142 -1497q-168 -48 -252 -48h-16l-32 16q32 508 158 1513q78 48 268 48z" />
<glyph unicode="}" horiz-adv-x="679" d="M458 1216q121 0 157 -394v-48q0 -114 -141 -299q24 0 141 -31v-32q-94 -104 -94 -174q0 -66 32 -583q0 -315 -505 -315v32q193 0 221 252v552q0 110 94 204v16q-25 0 -126 32v16q158 208 158 330q0 100 -79 378h-126q0 53 268 64z" />
<glyph unicode="~" horiz-adv-x="1815" d="M553 635h177q136 0 611 -315h39q226 216 316 216h19q0 -59 20 -138q-138 -197 -493 -197h-59q-155 0 -611 355h-118q-84 0 -335 -217h-59v59q115 237 493 237z" />
<glyph unicode="&#xa8;" d="M977 490l71 76q11 11 21 12q10 0 24 -11l68 -70q9 -11 9 -20q0 -12 -11 -25l-69 -78q-15 -17 -21 -17q-12 -1 -21 9l-76 82q-8 10 -8 19q0 11 13 23zM1342 508l71 77q11 10 21 11q10 0 24 -11l68 -69q9 -13 9 -22q0 -11 -11 -23l-69 -80q-15 -16 -21 -16q-12 -1 -21 9 l-76 83q-8 9 -8 18q0 11 13 23z" />
<glyph unicode="&#xa9;" horiz-adv-x="2091" d="M947 1679h177q210 0 513 -315v-59h-20q-110 0 -591 256q-33 20 -99 20h-59q-493 -385 -493 -1064v-40q0 -262 375 -512q183 -79 335 -79h79q269 0 670 512q90 128 138 414h39v-98q0 -323 -276 -631q-278 -296 -670 -296h-197q-610 0 -808 592v177q0 494 414 946 q210 177 473 177zM1026 1147h118v-39q-256 -153 -256 -355v-79q0 -203 295 -236v-59l-236 -20h-79q-315 0 -315 296q0 333 473 492z" />
<glyph unicode="&#xad;" horiz-adv-x="1303" d="M1144 773h79v-59q-368 -119 -769 -119h-394v60q202 59 887 78q0 36 197 40z" />
<glyph unicode="&#xae;" horiz-adv-x="2406" d="M1262 1758q375 -44 375 -256q-79 -39 -138 -39l-335 177h-79q-178 0 -473 -335q-237 -288 -237 -631q0 -492 414 -808q137 -39 237 -39h98q554 199 887 847q0 158 20 158q-59 299 -59 433q14 0 118 20q236 -293 236 -394v-98q0 -337 -670 -848q-323 -236 -768 -236 q-581 0 -769 532q-59 184 -59 335v157q0 492 670 907q307 115 532 118zM1262 1226h79q177 0 177 -276q0 -290 -256 -374v-20l256 -296v-59l-138 -19q-157 0 -374 236q0 -236 -197 -236h-40v98q103 828 178 828q83 118 315 118zM1144 1128q-118 -158 -118 -493l39 -20h39 q86 0 138 276v59q0 49 -39 178h-59z" />
<glyph unicode="&#xb0;" horiz-adv-x="652" d="M296 891h138q138 0 138 -138q0 -315 -216 -315l-99 -20q-197 20 -197 177q0 217 236 217v20h-59q0 28 59 59zM296 635l20 -99q55 0 79 197q-20 39 -20 60h-19q-60 -13 -60 -158z" />
<glyph unicode="&#xb1;" horiz-adv-x="1460" d="M907 1403l20 -118v-355l138 20h39q40 -6 40 -39q-218 -71 -237 -118v-257q0 -434 -177 -551q-65 -40 -118 -40h-20v20l20 39q-79 0 -79 237v374l20 99q-20 0 -20 19q-99 -39 -355 -39h-98v39q448 89 473 119q0 73 19 492q61 59 335 59zM1380 -35v-59q-180 -40 -1300 -178 l-20 40q608 197 1320 197z" />
<glyph unicode="&#xb4;" d="M1311 596q34 36 54 48.5t38 13.5q31 2 50 -15.5t19 -46.5q0 -20 -15 -40.5t-45 -40.5l-329 -219l-55 -3z" />
<glyph unicode="&#xb7;" horiz-adv-x="771" d="M553 891h19l-19 -39q138 -58 138 -178v-39q-55 -256 -434 -256h-20q-177 19 -177 78v99q0 260 256 315q102 20 237 20z" />
<glyph unicode="&#xb8;" d="M1051 377q79 -44 147 -41q68 4 98 28t30 71q0 49 -53 67q-41 14 -103 11q-17 -1 -27 -3l45 168l52 2l-38 -107q41 7 71 10q84 4 130 -32.5t46 -107.5q0 -73 -57 -119t-157 -52q-109 -5 -184 21v84z" />
<glyph unicode="&#xf9;" d="M1128 1225q209 10 281 -187v-38q-41 -60 -41 -95q-65 106 -292 257l-13 24v23zM867 816q70 3 118 -33q-14 -271 -14 -407v-274q0 -175 101 -248q276 158 415 531q0 171 14 248l-14 27q45 189 77 190l123 7q17 0 36 -35v-889q28 -195 28 -198l-159 -8q-119 -6 -119 181v96 q-180 -210 -360 -219q-309 -16 -309 135q-36 -1 -55 252q0 638 91 642z" />
<glyph unicode="&#x2c6;" d="M968 295l225 356l113 6l225 -334l-47 -3l-235 207l-235 -230z" />
<glyph unicode="&#x2dc;" d="M1531 610q-19 -96 -66 -148.5t-123 -56.5h-4q-50 -2 -112 17q-67 21 -115 19q-41 -2 -64 -25t-34 -72l-44 -2q18 99 65.5 152.5t125.5 57.5q46 2 112 -18q65 -20 113 -17h4q38 2 61 24t37 67z" />
<glyph unicode="&#x2000;" horiz-adv-x="879" />
<glyph unicode="&#x2001;" horiz-adv-x="1758" />
<glyph unicode="&#x2002;" horiz-adv-x="879" />
<glyph unicode="&#x2003;" horiz-adv-x="1758" />
<glyph unicode="&#x2004;" horiz-adv-x="586" />
<glyph unicode="&#x2005;" horiz-adv-x="439" />
<glyph unicode="&#x2006;" horiz-adv-x="293" />
<glyph unicode="&#x2007;" horiz-adv-x="293" />
<glyph unicode="&#x2008;" horiz-adv-x="219" />
<glyph unicode="&#x2009;" horiz-adv-x="351" />
<glyph unicode="&#x200a;" horiz-adv-x="97" />
<glyph unicode="&#x2010;" horiz-adv-x="1303" d="M1144 773h79v-59q-368 -119 -769 -119h-394v60q202 59 887 78q0 36 197 40z" />
<glyph unicode="&#x2011;" horiz-adv-x="1303" d="M1144 773h79v-59q-368 -119 -769 -119h-394v60q202 59 887 78q0 36 197 40z" />
<glyph unicode="&#x2012;" horiz-adv-x="1303" d="M1144 773h79v-59q-368 -119 -769 -119h-394v60q202 59 887 78q0 36 197 40z" />
<glyph unicode="&#x2013;" horiz-adv-x="1164" d="M1014 773h70v-59q-324 -119 -677 -119h-347v60q178 59 781 78q0 36 173 40z" />
<glyph unicode="&#x2014;" horiz-adv-x="1953" d="M415 517h1458v-40q-256 -79 -591 -79h-926q-99 0 -296 20q0 79 355 99z" />
<glyph unicode="&#x2018;" horiz-adv-x="573" d="M158 899h-19q-79 32 -79 138q0 240 394 394l20 -98q-40 -128 -40 -178v-118q0 -39 59 -39v-59q-157 -40 -335 -40z" />
<glyph unicode="&#x2019;" horiz-adv-x="573" d="M395 1431h19q79 -32 79 -138q0 -240 -394 -394l-20 98q40 128 40 178v118q0 39 -59 39v59q157 40 335 40z" />
<glyph unicode="&#x201c;" horiz-adv-x="830" d="M572 1679h40q138 0 138 -177q-33 -109 -99 -158h-20q-216 123 -216 276q98 59 157 59zM178 1620h99q39 0 79 -197q-45 -138 -158 -138q-138 38 -138 296q65 39 118 39z" />
<glyph unicode="&#x201d;" horiz-adv-x="869" d="M434 1561q0 -148 -275 -335v-20h-40q0 27 -59 119q52 216 217 216q19 20 157 20zM710 1502q79 -15 79 -39q-154 -230 -355 -296v20q45 315 276 315z" />
<glyph unicode="&#x2026;" horiz-adv-x="1991" d="M488 78l34 -19q25 -15 22 -81l-69 -120q-60 -56 -323 72q-13 8 -92 77l30 51l66 75q-34 20 -15 54q40 69 347 -109zM1170 78l34 -19q25 -15 22 -81l-69 -120q-60 -56 -323 72q-13 8 -92 77l29 51l67 75q-35 20 -15 54q39 69 347 -109zM1852 78l34 -19q25 -15 22 -81 l-69 -120q-60 -56 -323 72q-13 8 -92 77l29 51l67 75q-35 20 -15 54q39 69 347 -109z" />
<glyph unicode="&#x202f;" horiz-adv-x="351" />
<glyph unicode="&#x205f;" horiz-adv-x="439" />
<glyph unicode="&#x20ac;" horiz-adv-x="1559" d="M1242 1541h79q158 -19 158 -138q-31 0 -79 -39h-59l-197 59h-20q-205 -163 -295 -394h413v-59q-473 -64 -473 -99l-59 -335h20q52 0 552 99v-20q0 -56 -572 -177v-20q0 -245 296 -296h39q67 0 375 119v-40q-140 -197 -552 -197q-512 0 -512 394l-138 -19h-20l-138 19 q0 67 315 119q0 153 79 394h-118v19q0 36 177 79q221 532 729 532z" />
<glyph unicode="&#x2122;" horiz-adv-x="1697" d="M316 1679h276q39 -6 39 -39q-125 -40 -157 -40v-137q0 -242 -138 -434h-79q-59 121 -59 158q0 129 39 394l-138 19h-39v20q0 59 256 59zM1065 1640q59 -210 59 -296q165 276 276 276h138q67 0 79 -433q0 -36 -138 -138q-118 53 -118 79q0 103 -20 335q-41 0 -158 -395 q-77 -39 -216 -39q-53 0 -79 355q-157 -251 -217 -256h-79q-39 0 -39 59q183 453 394 453h118z" />
<glyph unicode="&#x25fc;" horiz-adv-x="805" d="M0 805h805v-805h-805v805z" />
</font>
</defs>
</svg>
